<svg width="29" height="29" viewBox="0 0 29 29" fill="none" xmlns="http://www.w3.org/2000/svg">
<g clip-path="url(#clip0_634_367)">
<rect x="0.203125" y="0.117188" width="28" height="28" rx="14" fill="white"/>
<rect x="0.203125" y="0.117188" width="28" height="28" fill="#A2BFF8"/>
<circle cx="14.2031" cy="14.1172" r="13.2454" stroke="white" stroke-width="1.50919"/>
<path d="M16.2051 18.46C15.6012 18.442 13.8093 17.8811 13.4531 17.6223Z" fill="#F1CF73"/>
<path d="M16.4536 21.2246C17.5679 22.7555 21.1706 23.2099 21.7852 23.4287C22.7934 23.8035 22.9649 24.8167 22.9798 25.3686C23.0229 26.9412 23.2109 29.6388 22.6484 31.0643" fill="#F1CF73"/>
<path d="M16.4536 21.2246C15.7777 20.0293 16.2051 18.46 16.2051 18.46C16.2051 18.46 17.5148 18.5212 18.0401 18.2575C19.0499 17.8305 20.2494 16.2686 20.237 14.0323C20.2084 12.0184 19.7768 10.0298 18.9671 8.18062C18.2364 6.31825 13.7025 4.57753 10.2869 7.83036C10.2869 7.83036 8.44534 9.48943 9.51482 12.2467" fill="#F1CF73"/>
<path d="M4.20792 31.0643C3.72164 29.5286 3.913 25.4903 3.98342 24.9204C4.05383 24.3505 4.32555 23.1944 5.76451 22.8425C6.40074 22.6849 10.3847 22.05 11.1932 20.9486" fill="#F1CF73"/>
<path d="M11.3887 16.7846C11.3887 16.7846 10.0508 16.0359 9.51731 14.4748C8.98381 12.9137 9.51482 12.2467 9.51482 12.2467C9.94311 11.6172 11.6472 11.4628 11.6472 13.362" fill="#F1CF73"/>
<path d="M11.3887 16.7846C11.4906 18.7686 11.5163 19.679 11.1932 20.9486Z" fill="#F1CF73"/>
<path d="M16.4536 21.2246C17.5679 22.7555 21.1706 23.2099 21.7852 23.4287C22.7934 23.8035 22.9649 24.8167 22.9798 25.3686C23.0229 26.9412 23.2109 29.6388 22.6484 31.0643H4.20792C3.72164 29.5286 3.913 25.4903 3.98342 24.9204C4.05383 24.3505 4.32555 23.1944 5.76451 22.8425C6.40074 22.6849 10.3847 22.05 11.1932 20.9486C11.5163 19.679 11.4906 18.7686 11.3887 16.7846C11.3887 16.7846 10.0508 16.0359 9.51731 14.4748C8.98381 12.9137 9.51482 12.2467 9.51482 12.2467C8.44534 9.48943 10.2869 7.83036 10.2869 7.83036C13.7025 4.57753 18.2364 6.31825 18.9671 8.18062C19.7768 10.0298 20.2084 12.0184 20.237 14.0323C20.2494 16.2686 19.0499 17.8305 18.0401 18.2575C17.5148 18.5212 16.2051 18.46 16.2051 18.46C16.2051 18.46 15.7777 20.0293 16.4536 21.2246Z" fill="#F1CF73"/>
<path opacity="0.4" d="M16.4122 18.6306C16.3306 19.2115 16.2042 20.0652 16.4122 20.7481C15.6412 20.5629 13.4648 19.0386 13.4648 17.8008C14.4171 18.1776 15.4046 18.4556 16.4122 18.6306Z" fill="#050504"/>
<path d="M10.5181 12.6445C9.92156 12.7033 9.51469 13.0296 9.98886 13.3814" stroke="#050504" stroke-width="0.226378" stroke-linecap="round"/>
<path d="M4.20792 31.0629C3.72164 29.4939 3.913 25.3684 3.98342 24.7861C4.05383 24.2039 4.32555 23.0228 5.76451 22.6633C6.31303 22.5245 9.33194 22.0887 10.672 21.2501C10.7692 20.8313 10.7676 20.3191 10.6894 19.7567C10.854 20.0941 12.1602 20.357 13.7471 20.357C15.3393 20.357 16.6491 20.0923 16.8063 19.7533C16.7031 20.3183 16.697 20.8732 16.8023 21.4384C18.1687 22.6983 21.2224 23.0575 21.7852 23.2622C22.7934 23.6451 22.9649 24.6802 22.9798 25.2441C23.0229 26.8506 23.2109 29.6065 22.6484 31.0629H4.20792Z" fill="#EB8682"/>
<path d="M16.3128 19.2734C16.7154 19.3877 16.8221 19.5303 16.8221 19.6847C16.8221 19.7078 16.8168 19.7307 16.8063 19.7533M11.3165 19.2734C10.9122 19.3869 10.672 19.5295 10.672 19.6847C10.672 19.709 10.6779 19.7331 10.6894 19.7567M10.6778 19.6763C10.6819 19.7032 10.6857 19.73 10.6894 19.7567M16.8097 19.7347C16.8086 19.7409 16.8074 19.7471 16.8063 19.7533M10.6894 19.7567C10.7676 20.3191 10.7692 20.8313 10.672 21.2501C9.33194 22.0887 6.31303 22.5245 5.76451 22.6633C4.32555 23.0228 4.05383 24.2039 3.98342 24.7861C3.913 25.3684 3.72164 29.4939 4.20792 31.0629H22.6484C23.2109 29.6065 23.0229 26.8506 22.9798 25.2441C22.9649 24.6802 22.7934 23.6451 21.7852 23.2622C21.2224 23.0575 18.1687 22.6983 16.8023 21.4384C16.697 20.8732 16.7031 20.3183 16.8063 19.7533M10.6894 19.7567C10.854 20.0941 12.1602 20.357 13.7471 20.357C15.3393 20.357 16.6491 20.0923 16.8063 19.7533" stroke="#050504" stroke-width="0.226378" stroke-linecap="round" stroke-linejoin="round"/>
<mask id="mask0_634_367" style="mask-type:alpha" maskUnits="userSpaceOnUse" x="3" y="20" width="21" height="11">
<path d="M10.787 21.1953C10.8681 20.8463 10.8846 20.4441 10.8509 20.0117C10.8685 20.0199 10.8866 20.0278 10.905 20.0356C11.093 20.115 11.3375 20.1832 11.621 20.2392C12.1893 20.3514 12.9365 20.4188 13.752 20.4188C14.5702 20.4188 15.3198 20.3509 15.8888 20.238C16.1727 20.1817 16.4173 20.113 16.6048 20.0331C16.6168 20.028 16.6287 20.0228 16.6404 20.0175C16.594 20.4706 16.6099 20.9216 16.6953 21.3792C16.702 21.4153 16.7202 21.4482 16.7471 21.4729C17.4749 22.1428 18.6349 22.5622 19.6591 22.84C20.175 22.9799 20.6645 23.0858 21.0585 23.1694L21.1459 23.1879C21.5015 23.2632 21.7536 23.3166 21.8733 23.3598C22.7929 23.7092 22.9638 24.6562 22.9787 25.2188C22.9845 25.432 22.9926 25.6639 23.0013 25.9093L23.0013 25.9094C23.026 26.6102 23.0546 27.4215 23.0412 28.2244C23.0239 29.2581 22.9366 30.2515 22.6925 30.9563H4.17163C3.95988 30.1659 3.89093 28.8199 3.88691 27.5609C3.8827 26.2424 3.94931 25.0549 3.98388 24.7695C4.01842 24.4844 4.10124 24.0649 4.34344 23.6757C4.58254 23.2915 4.98197 22.9284 5.66957 22.7568L5.67005 22.7567C5.77343 22.7306 5.96979 22.6932 6.23604 22.6424C6.31323 22.6277 6.3963 22.6118 6.48468 22.5948C6.87319 22.52 7.35462 22.4244 7.86189 22.3062C8.86921 22.0716 10.0036 21.7431 10.7118 21.3006C10.7498 21.2769 10.7768 21.239 10.787 21.1953Z" fill="#EB8682"/>
</mask>
<g mask="url(#mask0_634_367)">
<path d="M3.88674 18.5352C3.88674 18.5352 9.82585 21.2169 13.6323 21.2146C17.3086 21.2124 23.0446 18.5352 23.0446 18.5352V19.6894C23.0446 19.6894 17.3083 22.161 13.6323 22.1627C9.82609 22.1644 3.88674 19.7718 3.88674 19.7718V18.5352Z" fill="white"/>
<path d="M3.88672 21.0085C3.88672 21.0085 9.82583 22.8657 13.6322 22.8635C17.3086 22.8613 23.0446 21.0085 23.0446 21.0085V22.1627C23.0446 22.1627 17.3083 23.8099 13.6322 23.8116C9.82607 23.8133 3.88672 22.2451 3.88672 22.2451V21.0085Z" fill="white"/>
<path d="M3.88672 22.6573C3.88672 22.6573 9.82583 24.5146 13.6322 24.5123C17.3086 24.5101 23.0446 22.6573 23.0446 22.6573V23.8116C23.0446 23.8116 17.3083 25.4588 13.6322 25.4604C9.82607 25.4621 3.88672 23.894 3.88672 23.894V22.6573Z" fill="white"/>
<path d="M3.88672 24.3887C3.88672 24.3887 9.82583 26.2459 13.6322 26.2437C17.3086 26.2415 23.0446 24.3887 23.0446 24.3887V25.5429C23.0446 25.5429 17.3083 27.1901 13.6322 27.1918C9.82607 27.1935 3.88672 25.6253 3.88672 25.6253V24.3887Z" fill="white"/>
<path d="M3.88672 26.3673C3.88672 26.3673 9.82583 27.8948 13.6322 27.8925C17.3086 27.8903 23.0446 26.4498 23.0446 26.4498V27.604C23.0446 27.604 17.3083 28.839 13.6322 28.8406C9.82607 28.8423 3.88672 27.604 3.88672 27.604V26.3673Z" fill="white"/>
<path d="M3.88672 28.346C3.88672 28.346 9.82583 29.3788 13.6322 29.3765C17.3086 29.3743 23.0446 28.346 23.0446 28.346V29.5002C23.0446 29.5002 17.3083 30.323 13.6322 30.3246C9.82607 30.3263 3.88672 29.5826 3.88672 29.5826V28.346Z" fill="white"/>
</g>
<path d="M11.8231 19.9713L11.9206 19.2754C11.7174 19.289 11.2539 19.4883 11.2539 19.6847C11.2539 19.8812 11.6333 19.9577 11.8231 19.9713Z" fill="#050504"/>
<path d="M16.4575 20.0122L16.5795 19.2754C16.7828 19.289 17.1486 19.4883 17.1486 19.6847C17.1486 19.8812 16.6473 19.9986 16.4575 20.0122Z" fill="#050504"/>
<path d="M18.5636 9.69809C17.7852 10.1924 14.8026 10.5263 13.9022 10.4124C13.4807 10.3589 12.6659 10.2714 12.1733 10.2103C12.1581 10.211 12.1435 10.2167 12.1313 10.2268C12.1192 10.2369 12.1099 10.2508 12.1049 10.2668C12.0998 10.2828 12.0992 10.3001 12.103 10.3165C12.1068 10.333 12.1149 10.3477 12.1263 10.3589C14.2311 11.9159 11.5245 15.5131 11.3835 13.5179C11.1091 11.8768 9.82891 12.4714 9.67732 12.5742C9.49469 12.7022 9.3417 12.8768 9.23088 13.0838C9.09369 13.3293 9.02169 14.6417 9.72507 15.9854C9.7332 16.0025 9.7359 16.0221 9.73273 16.0411C9.72956 16.0601 9.72071 16.0773 9.70763 16.0899L9.45448 16.3124C9.44638 16.319 9.4372 16.3237 9.42747 16.3263C9.41774 16.3288 9.40766 16.3292 9.39779 16.3274C9.38793 16.3256 9.37849 16.3216 9.37 16.3157C9.36152 16.3098 9.35417 16.302 9.34836 16.2929C5.95803 10.4957 8.39182 9.3167 8.75564 9.1791C8.76841 9.17354 8.77959 9.1642 8.78799 9.15209C8.7964 9.13997 8.80172 9.12553 8.80339 9.1103C8.94665 7.48708 9.85392 5.61583 11.8974 5.25823C12.9949 5.05352 14.1 5.27267 14.7586 5.56401H14.764C15.5666 5.85451 16.1775 5.34232 16.8946 4.5702C16.9044 4.55962 16.9161 4.55142 16.9289 4.54609C16.9417 4.54076 16.9553 4.53842 16.969 4.53921C16.9826 4.54001 16.9959 4.54392 17.0082 4.55071C17.0204 4.5575 17.0313 4.56703 17.0401 4.5787C17.3501 4.99236 17.3342 5.28626 17.2258 5.54023C17.2211 5.55469 17.2201 5.57029 17.2227 5.58538C17.2254 5.60046 17.2316 5.61446 17.2408 5.62588C17.25 5.6373 17.2617 5.64571 17.2748 5.65022C17.288 5.65474 17.3019 5.65518 17.3152 5.6515C17.9663 5.38479 19.3928 5.70162 19.937 5.27267C19.9474 5.26558 19.9591 5.26138 19.9712 5.26043C19.9833 5.25949 19.9955 5.26182 20.0066 5.26723C20.0178 5.27264 20.0276 5.28098 20.0353 5.29153C20.0429 5.30209 20.0482 5.31455 20.0507 5.32788C20.2788 7.30615 19.6376 9.03555 18.5636 9.69809Z" fill="#050504" stroke="#050504" stroke-width="0.226378" stroke-linecap="round" stroke-linejoin="bevel"/>
<path d="M16.3302 12.8357C16.3302 12.8982 16.3809 12.9489 16.4434 12.9489C16.5059 12.9489 16.5566 12.8982 16.5566 12.8357H16.3302ZM17.5676 12.7089C17.5676 12.7714 17.6183 12.8221 17.6808 12.8221C17.7433 12.8221 17.794 12.7714 17.794 12.7089H17.5676ZM13.98 12.8818C14.0399 12.8999 14.103 12.866 14.1211 12.8061C14.1391 12.7463 14.1052 12.6831 14.0454 12.6651L13.98 12.8818ZM9.70634 12.1718L9.75322 12.2749L9.75676 12.2732L9.70634 12.1718ZM8.95536 13.3974C8.96729 13.4588 9.0267 13.4989 9.08807 13.4869C9.14943 13.475 9.1895 13.4156 9.17757 13.3542L8.95536 13.3974ZM16.3302 12.7735C16.3302 13.4641 15.8265 14.0041 15.2285 14.0041V14.2305C15.9724 14.2305 16.5566 13.5671 16.5566 12.7735H16.3302ZM15.2285 14.0041C14.6304 14.0041 14.1267 13.4641 14.1267 12.7735H13.9003C13.9003 13.5671 14.4845 14.2305 15.2285 14.2305V14.0041ZM14.1267 12.7735C14.1267 12.0828 14.6304 11.5428 15.2285 11.5428V11.3164C14.4845 11.3164 13.9003 11.9798 13.9003 12.7735H14.1267ZM15.2285 11.5428C15.8265 11.5428 16.3302 12.0828 16.3302 12.7735H16.5566C16.5566 11.9798 15.9724 11.3164 15.2285 11.3164V11.5428ZM19.9863 12.5138C19.9863 13.2044 19.4826 13.7444 18.8845 13.7444V13.9708C19.6285 13.9708 20.2127 13.3074 20.2127 12.5138H19.9863ZM18.8845 13.7444C18.2865 13.7444 17.7828 13.2044 17.7828 12.5138H17.5564C17.5564 13.3074 18.1406 13.9708 18.8845 13.9708V13.7444ZM17.7828 12.5138C17.7828 11.8231 18.2865 11.2831 18.8845 11.2831V11.0567C18.1406 11.0567 17.5564 11.7201 17.5564 12.5138H17.7828ZM18.8845 11.2831C19.4826 11.2831 19.9863 11.8231 19.9863 12.5138H20.2127C20.2127 11.7201 19.6285 11.0567 18.8845 11.0567V11.2831ZM16.5566 12.8357C16.5566 12.7525 16.6019 12.6825 16.6956 12.6255C16.7913 12.5673 16.9264 12.5314 17.0687 12.5231C17.211 12.5149 17.347 12.5351 17.4425 12.5764C17.5402 12.6187 17.5676 12.6678 17.5676 12.7089H17.794C17.794 12.536 17.6666 12.4268 17.5324 12.3687C17.3959 12.3096 17.2226 12.2874 17.0555 12.2971C16.8885 12.3068 16.7143 12.3492 16.578 12.4321C16.4396 12.5162 16.3302 12.65 16.3302 12.8357H16.5566ZM14.0127 12.7735C14.0454 12.6651 14.0454 12.6651 14.0453 12.6651C14.0453 12.6651 14.0452 12.665 14.0452 12.665C14.0451 12.665 14.0449 12.6649 14.0447 12.6649C14.0442 12.6647 14.0436 12.6645 14.0427 12.6643C14.041 12.6638 14.0385 12.663 14.0352 12.662C14.0286 12.6601 14.0187 12.6571 14.0059 12.6534C13.9803 12.6458 13.9428 12.6348 13.8947 12.621C13.7986 12.5934 13.6604 12.5545 13.492 12.5091C13.1552 12.4185 12.6966 12.302 12.2102 12.1991C11.7244 12.0963 11.208 12.0065 10.7565 11.9699C10.5308 11.9516 10.3188 11.9464 10.1335 11.9602C9.94995 11.9739 9.78404 12.0068 9.65592 12.0705L9.75676 12.2732C9.8468 12.2284 9.97908 12.1987 10.1503 12.1859C10.3199 12.1733 10.5193 12.1778 10.7382 12.1955C11.1759 12.231 11.6816 12.3187 12.1633 12.4206C12.6445 12.5224 13.0988 12.6377 13.4331 12.7277C13.6002 12.7727 13.7371 12.8113 13.8322 12.8386C13.8797 12.8522 13.9168 12.8631 13.9419 12.8705C13.9545 12.8742 13.964 12.877 13.9705 12.879C13.9737 12.8799 13.9761 12.8806 13.9777 12.8811C13.9785 12.8814 13.9791 12.8815 13.9795 12.8817C13.9797 12.8817 13.9798 12.8818 13.9799 12.8818C13.9799 12.8818 13.98 12.8818 13.98 12.8818C13.98 12.8818 13.98 12.8818 14.0127 12.7735ZM9.65949 12.0688C9.40728 12.1835 9.20074 12.3756 9.07297 12.616L9.27287 12.7223C9.3766 12.5271 9.5452 12.3695 9.75319 12.2749L9.65949 12.0688ZM9.07297 12.616C8.94514 12.8565 8.90363 13.1314 8.95536 13.3974L9.17757 13.3542C9.13582 13.1395 9.16918 12.9174 9.27287 12.7223L9.07297 12.616Z" fill="#050504"/>
<path d="M17.2105 13.2826C17.186 13.2251 17.1195 13.1983 17.062 13.2228C17.0045 13.2473 16.9777 13.3138 17.0022 13.3713L17.2105 13.2826ZM17.2602 15.4887C17.2034 15.5148 17.1786 15.582 17.2047 15.6388C17.2308 15.6956 17.298 15.7204 17.3548 15.6943L17.2602 15.4887ZM13.3773 11.41C13.3377 11.4584 13.3448 11.5297 13.3931 11.5693C13.4415 11.6089 13.5128 11.6018 13.5524 11.5534L13.3773 11.41ZM15.2695 10.6806L15.2892 10.5691L15.2884 10.569L15.2695 10.6806ZM15.5004 10.8613C15.5588 10.8836 15.6242 10.8544 15.6465 10.796C15.6688 10.7376 15.6396 10.6722 15.5812 10.6498L15.5004 10.8613ZM17.3965 10.8667C17.351 10.9095 17.3488 10.9812 17.3917 11.0267C17.4346 11.0722 17.5062 11.0743 17.5517 11.0314L17.3965 10.8667ZM19.1428 10.5459L19.1915 10.4438L19.1914 10.4437L19.1428 10.5459ZM19.2902 10.7691C19.3396 10.8075 19.4107 10.7985 19.449 10.7491C19.4873 10.6997 19.4784 10.6286 19.429 10.5903L19.2902 10.7691ZM17.1064 13.3269C17.0022 13.3713 17.0022 13.3713 17.0022 13.3713C17.0022 13.3713 17.0022 13.3713 17.0022 13.3714C17.0023 13.3714 17.0023 13.3715 17.0023 13.3716C17.0024 13.3718 17.0025 13.3721 17.0027 13.3725C17.003 13.3732 17.0035 13.3744 17.0042 13.376C17.0055 13.3791 17.0075 13.3837 17.01 13.3897C17.0152 13.4018 17.0227 13.4196 17.0323 13.4423C17.0515 13.4877 17.0789 13.5529 17.1118 13.6316C17.1776 13.7892 17.2653 14.0012 17.353 14.2189C17.4407 14.4369 17.5281 14.6599 17.5933 14.8398C17.626 14.9298 17.6527 15.0078 17.6711 15.0684C17.6803 15.0988 17.687 15.1236 17.6913 15.1426C17.6962 15.1638 17.6964 15.1711 17.6964 15.1696H17.9228C17.9228 15.1443 17.9175 15.1163 17.9121 15.0923C17.9061 15.0661 17.8977 15.0358 17.8877 15.0028C17.8676 14.9365 17.8394 14.8542 17.8061 14.7625C17.7395 14.579 17.651 14.3532 17.563 14.1344C17.4748 13.9154 17.3867 13.7025 17.3207 13.5444C17.2876 13.4653 17.2601 13.3999 17.2408 13.3543C17.2312 13.3314 17.2236 13.3135 17.2185 13.3013C17.2159 13.2953 17.2139 13.2906 17.2125 13.2874C17.2119 13.2858 17.2114 13.2846 17.211 13.2838C17.2108 13.2834 17.2107 13.2831 17.2106 13.2829C17.2106 13.2828 17.2106 13.2827 17.2105 13.2827C17.2105 13.2827 17.2105 13.2826 17.2105 13.2826C17.2105 13.2826 17.2105 13.2826 17.1064 13.3269ZM17.6964 15.1696C17.6964 15.1686 17.6967 15.174 17.6892 15.1874C17.6818 15.2007 17.6691 15.2175 17.6499 15.2372C17.6113 15.277 17.5565 15.3184 17.4969 15.3572C17.438 15.3955 17.3786 15.4285 17.3335 15.4521C17.311 15.4639 17.2924 15.4732 17.2795 15.4794C17.2731 15.4826 17.2681 15.485 17.2648 15.4865C17.2631 15.4873 17.2619 15.4879 17.2611 15.4882C17.2607 15.4884 17.2605 15.4885 17.2603 15.4886C17.2602 15.4886 17.2602 15.4887 17.2602 15.4887C17.2602 15.4887 17.2602 15.4887 17.2602 15.4887C17.2602 15.4887 17.2602 15.4887 17.2602 15.4887C17.2602 15.4887 17.2602 15.4887 17.3075 15.5915C17.3548 15.6943 17.3548 15.6943 17.3549 15.6943C17.3549 15.6943 17.3549 15.6943 17.3549 15.6943C17.3549 15.6943 17.355 15.6942 17.355 15.6942C17.3551 15.6942 17.3553 15.6941 17.3554 15.694C17.3558 15.6939 17.3562 15.6937 17.3568 15.6934C17.3579 15.6929 17.3595 15.6921 17.3615 15.6912C17.3656 15.6893 17.3714 15.6865 17.3787 15.6829C17.3932 15.6758 17.4138 15.6656 17.4385 15.6527C17.4875 15.627 17.5536 15.5904 17.6203 15.547C17.6861 15.5042 17.7568 15.4521 17.8124 15.3949C17.8638 15.3419 17.9228 15.2638 17.9228 15.1696H17.6964ZM13.5524 11.5534C14.007 10.9982 14.6595 10.6925 15.2507 10.7922L15.2884 10.569C14.5951 10.4521 13.8675 10.8112 13.3773 11.41L13.5524 11.5534ZM15.2499 10.792C15.3353 10.8071 15.4191 10.8303 15.5004 10.8613L15.5812 10.6498C15.4865 10.6137 15.3887 10.5866 15.2892 10.5691L15.2499 10.792ZM17.5517 11.0314C18.032 10.579 18.6252 10.4252 19.0941 10.6481L19.1914 10.4437C18.61 10.1672 17.9187 10.3747 17.3965 10.8667L17.5517 11.0314ZM19.094 10.6481C19.1633 10.6811 19.229 10.7217 19.2902 10.7691L19.429 10.5903C19.3551 10.533 19.2755 10.4838 19.1915 10.4438L19.094 10.6481Z" fill="#050504"/>
<path d="M15.6758 16.3281C15.9199 16.9674 16.7646 17.121 17.1495 17.0485" stroke="#050504" stroke-width="0.226378" stroke-miterlimit="10" stroke-linecap="round"/>
<path d="M15.3098 14.1182C15.5133 14.1182 15.6782 13.7883 15.6782 13.3814C15.6782 12.9744 15.5133 12.6445 15.3098 12.6445C15.1064 12.6445 14.9414 12.9744 14.9414 13.3814C14.9414 13.7883 15.1064 14.1182 15.3098 14.1182Z" fill="#050504"/>
<path d="M15.6768 13.3814C15.5236 12.5251 14.7573 12.3918 14.2031 13.1044" stroke="#050504" stroke-width="0.226378" stroke-linecap="round"/>
<path d="M18.9934 13.3799C19.1969 13.3799 19.3618 13.05 19.3618 12.6431C19.3618 12.2361 19.1969 11.9062 18.9934 11.9062C18.7899 11.9062 18.625 12.2361 18.625 12.6431C18.625 13.05 18.7899 13.3799 18.9934 13.3799Z" fill="#050504"/>
<path d="M19.3604 12.6431C19.2071 11.7868 18.4409 11.6535 17.8867 12.3661" stroke="#050504" stroke-width="0.226378" stroke-linecap="round"/>
</g>
<rect x="0.316314" y="0.230377" width="27.7736" height="27.7736" rx="13.8868" stroke="#050504" stroke-width="0.226378"/>
<defs>
<clipPath id="clip0_634_367">
<rect x="0.203125" y="0.117188" width="28" height="28" rx="14" fill="white"/>
</clipPath>
</defs>
</svg>
