<svg width="33" height="32" viewBox="0 0 33 32" fill="none" xmlns="http://www.w3.org/2000/svg">
<path fill-rule="evenodd" clip-rule="evenodd" d="M32.2656 16C32.1601 21.7438 31.6675 26.3266 29.0815 28.8158C26.4954 31.3051 22.0446 31.8944 16.2656 32C10.5218 31.8944 5.93907 31.4019 3.44979 28.8158C0.960512 26.2298 0.371178 21.779 0.265625 16C0.371178 10.2562 0.863756 5.67345 3.44979 3.18417C6.03583 0.694887 10.4866 0.105553 16.2656 0C22.0094 0.105553 26.5922 0.598131 29.0815 3.18417C31.5707 5.7702 32.1601 10.2562 32.2656 16Z" fill="#CF2228"/>
<path d="M11.5858 15.0789V19.0562C11.5848 19.1901 11.6093 19.3226 11.6577 19.4449C11.706 19.5671 11.7772 19.6763 11.8662 19.765C11.9553 19.8537 12.0602 19.9199 12.174 19.959C12.2877 19.9982 12.4076 20.0095 12.5255 19.9921C12.7298 19.9666 12.9185 19.8569 13.0552 19.6841C13.1919 19.5112 13.2669 19.2876 13.2656 19.0562V13.4412C13.2656 13.059 13.1307 12.6924 12.8905 12.4221C12.6503 12.1519 12.3246 12 11.9849 12C11.727 12.0029 11.476 12.094 11.2651 12.2611C11.0542 12.4283 10.8934 12.6636 10.8041 12.9359L9.32384 17.1284C9.31604 17.1326 9.30752 17.1347 9.29889 17.1347C9.29026 17.1347 9.28174 17.1326 9.27394 17.1284C9.26509 17.1342 9.25505 17.1372 9.24484 17.1372C9.23462 17.1372 9.22458 17.1342 9.21573 17.1284L7.73549 12.9359C7.64615 12.6636 7.48537 12.4283 7.27448 12.2611C7.06359 12.094 6.81254 12.0029 6.55462 12C6.22061 11.9974 5.89891 12.1417 5.65811 12.4022C5.41731 12.6627 5.27648 13.0187 5.26564 13.3944V19.0094C5.26439 19.2408 5.33934 19.4645 5.47602 19.6373C5.6127 19.8101 5.80142 19.9198 6.00576 19.9453C6.12369 19.9627 6.24356 19.9514 6.35728 19.9122C6.47101 19.8731 6.57595 19.8069 6.66501 19.7182C6.75408 19.6295 6.8252 19.5203 6.87358 19.3981C6.92196 19.2758 6.94648 19.1433 6.94547 19.0094V14.9853L8.50056 19.4118C8.57313 19.5766 8.68428 19.716 8.82202 19.8149C8.95977 19.9139 9.11889 19.9686 9.28226 19.9733C9.46257 19.9846 9.64125 19.9295 9.79128 19.8164C9.94131 19.7033 10.0545 19.5383 10.1139 19.3463L11.5858 15.0789Z" fill="white"/>
<path d="M26.9229 13.2904C26.6916 12.8895 26.3558 12.5654 25.9546 12.3559C25.4912 12.1109 24.9769 11.9889 24.4573 12.0008H22.4311C22.122 12.0008 21.8256 12.1288 21.607 12.3566C21.3884 12.5844 21.2656 12.8934 21.2656 13.2156V19.0655C21.2656 19.3134 21.3601 19.551 21.5282 19.7263C21.6964 19.9015 21.9244 20 22.1622 20C22.4 20 22.628 19.9015 22.7961 19.7263C22.9643 19.551 23.0587 19.3134 23.0587 19.0655V17.5049H24.3946C24.9238 17.5191 25.4489 17.4039 25.9277 17.1685C26.3383 16.9625 26.6836 16.6382 26.9229 16.234C27.1558 15.7905 27.2732 15.2911 27.2636 14.7856C27.283 14.2641 27.1652 13.747 26.9229 13.2904ZM25.1925 15.393C25.0932 15.5809 24.9394 15.7314 24.7532 15.8228C24.5351 15.9307 24.2952 15.982 24.0539 15.9724H23.1394V13.5334H24.036C24.2772 13.5237 24.5172 13.575 24.7353 13.6829C24.9235 13.7667 25.0785 13.9151 25.1746 14.1034C25.2766 14.3012 25.3261 14.5238 25.318 14.7482C25.3292 14.9707 25.286 15.1926 25.1925 15.393Z" fill="white"/>
<path d="M19.1362 18.2265H17.0539L17.7509 17.6022C18.2143 17.205 18.6506 16.7757 19.0568 16.3174C19.321 16.0275 19.5358 15.6941 19.6921 15.3311C19.8064 15.0437 19.8663 14.7366 19.8686 14.4263C19.8801 13.9741 19.7569 13.5291 19.5156 13.1505C19.2589 12.7728 18.9 12.4803 18.4833 12.309C17.9999 12.0917 17.4756 11.9867 16.948 12.0014C16.4301 11.9887 15.9164 12.1002 15.448 12.3271C15.0401 12.5243 14.6968 12.8386 14.4597 13.2319C14.4202 13.2911 14.3876 13.3549 14.3627 13.4219C14.358 13.4366 14.358 13.4525 14.3627 13.4672C14.3627 13.4672 14.3627 13.5215 14.3627 13.5486C14.3627 13.5486 14.3627 13.6029 14.3627 13.63V13.7386C14.3627 13.9954 14.4622 14.2416 14.6392 14.4232C14.8163 14.6048 15.0564 14.7068 15.3068 14.7068C15.4988 14.7093 15.6869 14.6506 15.845 14.5388C16.0031 14.4269 16.1233 14.2675 16.1892 14.0824V14.0282C16.2658 13.8855 16.3786 13.7667 16.5156 13.6843C16.6677 13.6021 16.8379 13.5616 17.0097 13.5667C17.1788 13.5615 17.3462 13.602 17.495 13.6843C17.6364 13.7555 17.7534 13.8691 17.8303 14.0101C17.9154 14.171 17.958 14.3519 17.9539 14.5349C17.9556 14.7068 17.9194 14.8769 17.848 15.0325C17.7685 15.1938 17.6675 15.343 17.548 15.4759C17.4156 15.6116 17.2568 15.7654 17.0715 15.9283L14.6009 18.1361C14.497 18.2283 14.4133 18.3422 14.3555 18.4701C14.2977 18.598 14.2671 18.737 14.2656 18.878V18.9866C14.2656 19.2458 14.366 19.4943 14.5447 19.6776C14.7234 19.8609 14.9658 19.9638 15.2186 19.9638H19.1362C19.2677 20.0031 19.4063 20.0105 19.5411 19.9854C19.6759 19.9603 19.8031 19.9033 19.9127 19.819C20.0223 19.7348 20.1112 19.6255 20.1725 19.4998C20.2337 19.3742 20.2656 19.2356 20.2656 19.0952C20.2656 18.9547 20.2337 18.8162 20.1725 18.6905C20.1112 18.5649 20.0223 18.4556 19.9127 18.3713C19.8031 18.287 19.6759 18.2301 19.5411 18.2049C19.4063 18.1798 19.2677 18.1872 19.1362 18.2265Z" fill="white"/>
</svg>
