<svg width="21" height="22" viewBox="0 0 21 22" fill="none" xmlns="http://www.w3.org/2000/svg">
<path opacity="0.3" fill-rule="evenodd" clip-rule="evenodd" d="M5.69061 2.04856C6.98893 0.811922 8.74983 0.117188 10.5859 0.117188C12.422 0.117188 14.1829 0.811922 15.4813 2.04856C16.7796 3.28519 17.509 4.96243 17.509 6.7113C17.509 10.0225 18.2529 12.0974 18.9535 13.3209C19.3049 13.9345 19.6496 14.3413 19.8943 14.5874C20.0169 14.7107 20.1149 14.7941 20.1769 14.8433C20.2079 14.8679 20.2299 14.8839 20.2414 14.8921L20.2503 14.8983C20.5274 15.0784 20.6503 15.4093 20.5529 15.7158C20.4546 16.0248 20.1556 16.2361 19.8167 16.2361H1.35522C1.01625 16.2361 0.717232 16.0248 0.619003 15.7158C0.521585 15.4093 0.644433 15.0784 0.921586 14.8983L0.93044 14.8921C0.941996 14.8839 0.963993 14.8679 0.994988 14.8433C1.05696 14.7941 1.15499 14.7107 1.27757 14.5874C1.52232 14.3413 1.867 13.9345 2.21838 13.3209C2.91901 12.0974 3.6629 10.0225 3.6629 6.7113C3.6629 4.96243 4.39229 3.28519 5.69061 2.04856ZM3.08836 14.7708H18.0835C17.9261 14.5524 17.764 14.3039 17.6029 14.0226C16.7651 12.5596 15.9705 10.2384 15.9705 6.7113C15.9705 5.35107 15.4032 4.04655 14.3934 3.08472C13.3836 2.12289 12.014 1.58255 10.5859 1.58255C9.15786 1.58255 7.78827 2.12289 6.77846 3.08472C5.76866 4.04655 5.20135 5.35107 5.20135 6.7113C5.20135 10.2384 4.4068 12.5596 3.56898 14.0226C3.40787 14.3039 3.24578 14.5524 3.08836 14.7708ZM8.42561 18.7773C8.79309 18.5743 9.2638 18.6934 9.47697 19.0434C9.58967 19.2285 9.75143 19.3821 9.94605 19.4889C10.1407 19.5956 10.3613 19.6518 10.5859 19.6518C10.8105 19.6518 11.0312 19.5956 11.2258 19.4889C11.4204 19.3821 11.5822 19.2285 11.6949 19.0434C11.9081 18.6934 12.3788 18.5743 12.7463 18.7773C13.1137 18.9803 13.2388 19.4287 13.0257 19.7787C12.7777 20.1858 12.4219 20.5237 11.9937 20.7586C11.5655 20.9935 11.0801 21.1172 10.5859 21.1172C10.0918 21.1172 9.60637 20.9935 9.17819 20.7586C8.75002 20.5237 8.39414 20.1858 8.14621 19.7787C7.93304 19.4287 8.05813 18.9803 8.42561 18.7773Z" fill="#0D1634"/>
</svg>
