<svg width="15" height="14" viewBox="0 0 15 14" fill="none" xmlns="http://www.w3.org/2000/svg">
<path fill-rule="evenodd" clip-rule="evenodd" d="M12.5518 8.34663C12.5518 7.85097 12.15 7.44916 11.6543 7.44916C11.1587 7.44916 10.7568 7.85097 10.7568 8.34663C10.7568 8.84229 11.1587 9.2441 11.6543 9.2441C12.15 9.2441 12.5518 8.84229 12.5518 8.34663ZM12.103 6.60828C12.8772 6.80753 13.4492 7.51028 13.4492 8.34663C13.4492 9.18299 12.8772 9.88574 12.103 10.085L12.103 12.3849C12.103 12.6328 11.9021 12.8337 11.6543 12.8337C11.4065 12.8337 11.2056 12.6328 11.2056 12.3849L11.2056 10.085C10.4314 9.88574 9.85942 9.18299 9.85942 8.34663C9.85942 7.51028 10.4314 6.80753 11.2056 6.60828L11.2056 1.61571C11.2056 1.36789 11.4065 1.16699 11.6543 1.16699C11.9021 1.16699 12.103 1.36789 12.103 1.61571L12.103 6.60828ZM8.51356 4.30804C8.51356 3.81238 8.11175 3.41057 7.61609 3.41057C7.12043 3.41057 6.71862 3.81238 6.71862 4.30804C6.71862 4.79854 7.11212 5.19714 7.60065 5.20538C7.60562 5.20521 7.6106 5.20513 7.6156 5.20513C7.62071 5.20513 7.6258 5.20522 7.63087 5.20539C8.11971 5.19749 8.51356 4.79876 8.51356 4.30804ZM8.06431 6.04652C8.83872 5.84744 9.41099 5.14457 9.41099 4.30804C9.41099 3.47163 8.83889 2.76884 8.06466 2.56964L8.06431 1.61554C8.06422 1.36772 7.86325 1.1669 7.61543 1.16699C7.36762 1.16708 7.16679 1.36805 7.16688 1.61587L7.16723 2.56972C6.39315 2.76902 5.82119 3.47173 5.82119 4.30804C5.82119 5.14421 6.39298 5.84684 7.16688 6.04626L7.16688 12.3848C7.16688 12.6326 7.36778 12.8335 7.6156 12.8335C7.86342 12.8335 8.06431 12.6326 8.06431 12.3848L8.06431 6.04652ZM4.47501 10.366C4.47501 9.87032 4.07319 9.46851 3.57754 9.46851C3.08188 9.46851 2.68006 9.87032 2.68006 10.366C2.68006 10.8565 3.07357 11.2551 3.56212 11.2633C3.56707 11.2632 3.57205 11.2631 3.57704 11.2631C3.58215 11.2631 3.58724 11.2632 3.59232 11.2633C4.08116 11.2554 4.47501 10.8567 4.47501 10.366ZM4.02576 12.1045C4.80016 11.9054 5.37244 11.2025 5.37244 10.366C5.37244 9.52961 4.80039 8.82685 4.02622 8.62761L4.02576 1.61568C4.02574 1.36786 3.82483 1.16698 3.57701 1.16699C3.3292 1.16701 3.12831 1.36792 3.12833 1.61574L3.12879 8.62763C2.35465 8.82689 1.78264 9.52963 1.78264 10.366C1.78264 11.2022 2.35442 11.9048 3.12833 12.1042L3.12833 12.3849C3.12833 12.6327 3.32922 12.8336 3.57704 12.8336C3.82486 12.8336 4.02576 12.6327 4.02576 12.3849L4.02576 12.1045Z" fill="white"/>
</svg>
