<svg width="21" height="22" viewBox="0 0 21 22" fill="none" xmlns="http://www.w3.org/2000/svg">
<path fill-rule="evenodd" clip-rule="evenodd" d="M6.79808 5.10556C6.59899 5.10556 6.39613 5.19366 6.2379 5.37084C6.07813 5.54973 5.98077 5.80253 5.98077 6.07563V16.3254C5.98077 16.5985 6.07813 16.8513 6.2379 17.0302C6.39613 17.2074 6.59898 17.2955 6.79808 17.2955H11.0481C11.3189 17.2955 11.5385 17.5167 11.5385 17.7897C11.5385 18.0626 11.3189 18.2839 11.0481 18.2839H6.79808C6.30353 18.2839 5.84114 18.0634 5.5089 17.6914C5.17819 17.3211 5 16.829 5 16.3254V6.07563C5 5.57204 5.17819 5.07996 5.5089 4.70965C5.84114 4.33763 6.30353 4.11719 6.79808 4.11719H11.375C11.514 4.11719 11.6465 4.17665 11.7395 4.28078L15.0087 7.94142C15.0898 8.03216 15.1346 8.14993 15.1346 8.27201V9.73627C15.1346 10.0092 14.9151 10.2305 14.6442 10.2305C14.3734 10.2305 14.1538 10.0092 14.1538 9.73627V8.7662H12.0288C11.7077 8.7662 11.4116 8.62289 11.202 8.38817C10.9939 8.15516 10.8846 7.8493 10.8846 7.53988V5.10556H6.79808ZM11.8654 5.8992L13.5431 7.77782H12.0288C12.0032 7.77782 11.9666 7.76686 11.931 7.72698C11.8939 7.68539 11.8654 7.61881 11.8654 7.53988V5.8992ZM14.1538 12.4109C13.2167 12.634 12.5192 13.4825 12.5192 14.4951C12.5192 15.6778 13.4706 16.6366 14.6442 16.6366C15.6491 16.6366 16.491 15.9337 16.7124 14.9893H14.6442C14.3734 14.9893 14.1538 14.768 14.1538 14.4951V12.4109ZM15.1346 12.4109V14.0009H16.7124C16.5282 13.2151 15.9144 12.5965 15.1346 12.4109ZM11.5385 14.4951C11.5385 12.7665 12.929 11.3652 14.6442 11.3652C16.3595 11.3652 17.75 12.7665 17.75 14.4951C17.75 16.2237 16.3595 17.6249 14.6442 17.6249C12.929 17.6249 11.5385 16.2237 11.5385 14.4951Z" fill="white"/>
</svg>
