<svg width="20" height="21" viewBox="0 0 20 21" fill="none" xmlns="http://www.w3.org/2000/svg">
<g clip-path="url(#clip0_634_452)">
<path d="M15.374 12.3859C15.0029 13.2635 14.4225 14.0369 13.6835 14.6383C12.9444 15.2398 12.0693 15.6511 11.1346 15.8362C10.1999 16.0213 9.23412 15.9747 8.32162 15.7003C7.40913 15.4259 6.57774 14.9322 5.90013 14.2623C5.22253 13.5924 4.71935 12.7667 4.43457 11.8574C4.1498 10.9481 4.09211 9.98286 4.26655 9.04611C4.44099 8.10937 4.84224 7.22961 5.43523 6.48376C6.02822 5.73791 6.79489 5.14868 7.6682 4.76758" stroke="white" stroke-linecap="round" stroke-linejoin="round"/>
<path d="M15.8333 10.1185C15.8333 9.35245 15.6825 8.5939 15.3893 7.88617C15.0961 7.17844 14.6665 6.53538 14.1248 5.9937C13.5831 5.45202 12.9401 5.02234 12.2323 4.72919C11.5246 4.43604 10.766 4.28516 10 4.28516V10.1185H15.8333Z" stroke="white" stroke-linecap="round" stroke-linejoin="round"/>
</g>
<defs>
<clipPath id="clip0_634_452">
<rect width="14" height="14" fill="white" transform="translate(3 3.11719)"/>
</clipPath>
</defs>
</svg>
