<svg width="20" height="21" viewBox="0 0 20 21" fill="none" xmlns="http://www.w3.org/2000/svg">
<g clip-path="url(#clip0_634_428)">
<path d="M15.8561 10.5791C15.7419 10.4514 15.6789 10.2872 15.6789 10.1172C15.6789 9.94718 15.7419 9.78297 15.8561 9.65525L16.7681 8.64739C16.8686 8.53727 16.931 8.39871 16.9464 8.2516C16.9618 8.10448 16.9293 7.95636 16.8536 7.8285L15.4286 5.40683C15.3537 5.27911 15.2397 5.17787 15.1028 5.11755C14.9659 5.05722 14.8131 5.04089 14.6662 5.07087L13.3267 5.33684C13.1563 5.37143 12.9788 5.34355 12.8279 5.25845C12.6769 5.17335 12.5629 5.03692 12.5073 4.8749L12.0727 3.59407C12.0249 3.45506 11.9338 3.33432 11.8124 3.24891C11.6909 3.16351 11.5452 3.11776 11.3958 3.11814H8.54578C8.39041 3.11017 8.23665 3.15238 8.10799 3.23832C7.97933 3.32426 7.88285 3.44921 7.83327 3.59407L7.43427 4.8749C7.37869 5.03692 7.26467 5.17335 7.11372 5.25845C6.96277 5.34355 6.78533 5.37143 6.61488 5.33684L5.23974 5.07087C5.10048 5.05154 4.95851 5.07313 4.83172 5.13291C4.70493 5.1927 4.59898 5.288 4.52723 5.40683L3.10221 7.8285C3.02466 7.95494 2.98979 8.10222 3.00259 8.2493C3.01539 8.39637 3.07519 8.53571 3.17346 8.64739L4.07835 9.65525C4.19258 9.78297 4.25557 9.94718 4.25557 10.1172C4.25557 10.2872 4.19258 10.4514 4.07835 10.5791L3.17346 11.587C3.07519 11.6987 3.01539 11.838 3.00259 11.9851C2.98979 12.1322 3.02466 12.2794 3.10221 12.4059L4.52723 14.8275C4.60211 14.9553 4.71613 15.0565 4.85303 15.1168C4.98992 15.1772 5.14271 15.1935 5.28961 15.1635L6.62913 14.8975C6.79958 14.8629 6.97702 14.8908 7.12797 14.9759C7.27892 15.061 7.39294 15.1975 7.44852 15.3595L7.88315 16.6403C7.93272 16.7852 8.02921 16.9101 8.15787 16.9961C8.28653 17.082 8.44028 17.1242 8.59566 17.1162H11.4457C11.5951 17.1166 11.7408 17.0709 11.8623 16.9855C11.9837 16.9001 12.0748 16.7793 12.1226 16.6403L12.5572 15.3595C12.6128 15.1975 12.7268 15.061 12.8778 14.9759C13.0287 14.8908 13.2062 14.8629 13.3766 14.8975L14.7161 15.1635C14.863 15.1935 15.0158 15.1772 15.1527 15.1168C15.2896 15.0565 15.4036 14.9553 15.4785 14.8275L16.9035 12.4059C16.9792 12.278 17.0116 12.1299 16.9963 11.9828C16.9809 11.8357 16.9185 11.6971 16.818 11.587L15.8561 10.5791ZM14.7945 11.517L15.3645 12.1469L14.4525 13.7007L13.6117 13.5327C13.0986 13.4297 12.5647 13.5153 12.1116 13.7734C11.6585 14.0314 11.3175 14.4439 11.1536 14.9325L10.8828 15.7164H9.05879L8.80229 14.9185C8.63831 14.4299 8.29739 14.0174 7.84425 13.7594C7.39111 13.5013 6.85729 13.4157 6.34413 13.5187L5.50337 13.6867L4.57711 12.1399L5.14711 11.51C5.49763 11.125 5.69142 10.6267 5.69142 10.1102C5.69142 9.59371 5.49763 9.09534 5.14711 8.71038L4.57711 8.08046L5.48912 6.54067L6.32988 6.70865C6.84304 6.81169 7.37686 6.72607 7.83 6.46802C8.28314 6.20998 8.62405 5.79749 8.78804 5.30884L9.05879 4.51795H10.8828L11.1536 5.31584C11.3175 5.80448 11.6585 6.21698 12.1116 6.47502C12.5647 6.73306 13.0986 6.81869 13.6117 6.71565L14.4525 6.54767L15.3645 8.10146L14.7945 8.73138C14.4479 9.11546 14.2565 9.61093 14.2565 10.1242C14.2565 10.6374 14.4479 11.1329 14.7945 11.517ZM9.9708 7.31757C9.40712 7.31757 8.85609 7.48176 8.38741 7.78939C7.91872 8.09702 7.55342 8.53426 7.33771 9.04582C7.122 9.55738 7.06556 10.1203 7.17553 10.6634C7.2855 11.2064 7.55694 11.7053 7.95552 12.0968C8.35411 12.4884 8.86193 12.755 9.41479 12.863C9.96764 12.971 10.5407 12.9156 11.0615 12.7037C11.5822 12.4918 12.0274 12.133 12.3405 11.6726C12.6537 11.2122 12.8208 10.6709 12.8208 10.1172C12.8208 9.37468 12.5206 8.66259 11.9861 8.13756C11.4516 7.61253 10.7267 7.31757 9.9708 7.31757ZM9.9708 11.517C9.68896 11.517 9.41345 11.4349 9.1791 11.2811C8.94476 11.1273 8.76211 10.9087 8.65426 10.6529C8.5464 10.3971 8.51818 10.1156 8.57316 9.8441C8.62815 9.57256 8.76387 9.32314 8.96316 9.12737C9.16245 8.93161 9.41637 8.79829 9.69279 8.74427C9.96922 8.69026 10.2557 8.71798 10.5161 8.82393C10.7765 8.92988 10.9991 9.1093 11.1557 9.33949C11.3122 9.56969 11.3958 9.84033 11.3958 10.1172C11.3958 10.4884 11.2457 10.8445 10.9784 11.107C10.7112 11.3695 10.3487 11.517 9.9708 11.517Z" fill="white"/>
</g>
<defs>
<clipPath id="clip0_634_428">
<rect width="20" height="20" fill="white" transform="translate(0 0.117188)"/>
</clipPath>
</defs>
</svg>
