<svg width="20" height="21" viewBox="0 0 20 21" fill="none" xmlns="http://www.w3.org/2000/svg">
<path fill-rule="evenodd" clip-rule="evenodd" d="M14.9346 11.4628C14.9346 10.9672 14.5328 10.5654 14.0371 10.5654C13.5415 10.5654 13.1397 10.9672 13.1397 11.4628C13.1397 11.9585 13.5415 12.3603 14.0371 12.3603C14.5328 12.3603 14.9346 11.9585 14.9346 11.4628ZM14.4858 9.72449C15.26 9.92374 15.832 10.6265 15.832 11.4628C15.832 12.2992 15.26 13.0019 14.4858 13.2012L14.4858 15.5012C14.4858 15.749 14.2849 15.9499 14.0371 15.9499C13.7893 15.9499 13.5884 15.749 13.5884 15.5012L13.5884 13.2012C12.8143 13.0019 12.2422 12.2992 12.2422 11.4628C12.2422 10.6265 12.8143 9.92374 13.5884 9.72449L13.5884 4.73192C13.5884 4.4841 13.7893 4.2832 14.0371 4.2832C14.2849 4.2832 14.4858 4.4841 14.4858 4.73192L14.4858 9.72449ZM10.8964 7.42425C10.8964 6.92859 10.4946 6.52678 9.9989 6.52678C9.50325 6.52678 9.10143 6.92859 9.10143 7.42425C9.10143 7.91475 9.49493 8.31335 9.98347 8.32159C9.98843 8.32143 9.99341 8.32134 9.99841 8.32134C10.0035 8.32134 10.0086 8.32143 10.0137 8.3216C10.5025 8.31371 10.8964 7.91497 10.8964 7.42425ZM10.4471 9.16273C11.2215 8.96365 11.7938 8.26078 11.7938 7.42425C11.7938 6.58784 11.2217 5.88505 10.4475 5.68585L10.4471 4.73175C10.447 4.48394 10.2461 4.28311 9.99825 4.2832C9.75043 4.28329 9.54961 4.48426 9.5497 4.73208L9.55005 5.68593C8.77596 5.88523 8.204 6.58794 8.204 7.42425C8.204 8.26042 8.77579 8.96305 9.5497 9.16248L9.5497 15.501C9.5497 15.7488 9.75059 15.9497 9.99841 15.9497C10.2462 15.9497 10.4471 15.7488 10.4471 15.501L10.4471 9.16273ZM6.85782 13.4822C6.85782 12.9865 6.45601 12.5847 5.96035 12.5847C5.46469 12.5847 5.06288 12.9865 5.06288 13.4822C5.06288 13.9727 5.45638 14.3713 5.94493 14.3795C5.94988 14.3794 5.95486 14.3793 5.95985 14.3793C5.96497 14.3793 5.97006 14.3794 5.97513 14.3795C6.46397 14.3716 6.85782 13.9729 6.85782 13.4822ZM6.40857 15.2207C7.18298 15.0216 7.75525 14.3187 7.75525 13.4822C7.75525 12.6458 7.18321 11.9431 6.40904 11.7438L6.40857 4.73189C6.40855 4.48407 6.20764 4.28319 5.95983 4.2832C5.71201 4.28322 5.51112 4.48413 5.51114 4.73195L5.51161 11.7438C4.73746 11.9431 4.16545 12.6458 4.16545 13.4822C4.16545 14.3184 4.73723 15.021 5.51114 15.2204L5.51114 15.5011C5.51114 15.7489 5.71204 15.9498 5.95985 15.9498C6.20767 15.9498 6.40857 15.7489 6.40857 15.5011L6.40857 15.2207Z" fill="white"/>
</svg>
